<?xml version="1.0" encoding="UTF-8"?><svg id="Layer_2" xmlns="http://www.w3.org/2000/svg" xmlns:xlink="http://www.w3.org/1999/xlink" viewBox="0 0 306.12 306.12"><defs><style>.cls-1{fill:url(#linear-gradient-2);}.cls-2{fill:url(#linear-gradient);fill-rule:evenodd;}</style><linearGradient id="linear-gradient" x1="0" y1="152.83" x2="306.12" y2="152.83" gradientTransform="translate(0 305.89) scale(1 -1)" gradientUnits="userSpaceOnUse"><stop offset="0" stop-color="#6a65bf"/><stop offset=".17" stop-color="#6a6abd"/><stop offset=".39" stop-color="#6b79b9"/><stop offset=".63" stop-color="#6c93b3"/><stop offset=".89" stop-color="#6eb7ab"/><stop offset="1" stop-color="#6fc9a7"/></linearGradient><linearGradient id="linear-gradient-2" x1="-70.4" y1="-68.57" x2="488.04" y2="484.76" xlink:href="#linear-gradient"/></defs><g id="Layer_2-2"><path class="cls-2" d="m98.72,31.86c3.99,2.14,7.83,4.46,11.49,6.93,7.41,5,14.27,10.65,20.49,16.87,4.57,4.57,8.84,9.5,12.77,14.73,2.34,3.12,5.69,4.8,9.59,4.8s7.25-1.68,9.59-4.8c3.93-5.23,8.2-10.16,12.77-14.73,6.22-6.21,13.08-11.87,20.49-16.87,3.66-2.47,7.5-4.78,11.49-6.93,3.08-1.66,6.37-1.91,9.67-.74s5.7,3.43,7.06,6.65l4.65,11.03c2.38,5.66.16,12.13-5.2,15.12-2.56,1.43-5.09,2.99-7.57,4.66-5.4,3.64-10.47,7.83-15.15,12.51-4.67,4.67-8.87,9.75-12.51,15.15-2.85,4.23-5.36,8.58-7.49,13.02-2.25,4.67-1.34,10.01,2.33,13.67,3.67,3.67,9,4.58,13.67,2.33,4.44-2.14,8.79-4.64,13.02-7.5,5.4-3.64,10.47-7.83,15.15-12.51,4.67-4.67,8.87-9.75,12.51-15.15,1.67-2.48,3.23-5.01,4.66-7.57,3-5.36,9.47-7.58,15.13-5.2l11.03,4.65c3.23,1.36,5.49,3.76,6.65,7.06,1.17,3.3.92,6.58-.74,9.67-2.15,3.99-4.46,7.83-6.93,11.49-5,7.41-10.65,14.27-16.87,20.49-4.57,4.57-9.5,8.84-14.73,12.77-3.12,2.34-4.79,5.69-4.79,9.59s1.68,7.25,4.79,9.59c5.23,3.93,10.16,8.19,14.73,12.77,6.22,6.22,11.87,13.08,16.87,20.49,2.47,3.66,4.78,7.5,6.93,11.49,1.66,3.08,1.91,6.37.74,9.67s-3.42,5.7-6.65,7.06l-11.03,4.65c-5.66,2.38-12.13.16-15.13-5.2-1.43-2.56-2.99-5.09-4.66-7.57-3.64-5.4-7.83-10.47-12.51-15.15s-9.75-8.87-15.15-12.51c-4.23-2.85-8.58-5.36-13.02-7.5-4.68-2.25-10.01-1.34-13.67,2.33-3.67,3.67-4.58,9-2.33,13.67,2.13,4.44,4.64,8.8,7.49,13.02,3.64,5.4,7.84,10.47,12.51,15.15,4.67,4.67,9.75,8.87,15.15,12.51,2.48,1.67,5.01,3.23,7.57,4.66,5.36,3,7.58,9.47,5.2,15.12l-4.65,11.03c-1.36,3.23-3.75,5.48-7.06,6.65-3.3,1.17-6.58.91-9.67-.74-4-2.15-7.83-4.46-11.49-6.93-7.41-5-14.27-10.65-20.49-16.87-4.57-4.57-8.84-9.5-12.77-14.73-2.34-3.12-5.7-4.8-9.59-4.8s-7.25,1.68-9.59,4.8c-3.93,5.23-8.19,10.16-12.77,14.73-6.21,6.21-13.08,11.87-20.49,16.87-3.66,2.47-7.5,4.78-11.49,6.93-3.08,1.66-6.37,1.91-9.67.74-3.3-1.17-5.7-3.43-7.06-6.65l-4.65-11.03c-2.38-5.66-.16-12.13,5.2-15.12,2.56-1.43,5.09-2.99,7.57-4.66,5.4-3.64,10.48-7.83,15.15-12.51,4.67-4.67,8.87-9.75,12.51-15.15,2.85-4.23,5.36-8.58,7.49-13.02,2.25-4.67,1.34-10.01-2.33-13.67-3.67-3.67-9-4.58-13.68-2.33-4.44,2.13-8.79,4.64-13.02,7.5-5.4,3.64-10.48,7.83-15.15,12.51-4.67,4.67-8.87,9.75-12.51,15.15-1.67,2.48-3.23,5.01-4.66,7.57-3,5.36-9.47,7.58-15.12,5.2l-11.03-4.65c-3.22-1.36-5.48-3.76-6.65-7.06s-.92-6.58.74-9.67c2.14-3.99,4.46-7.83,6.93-11.49,5-7.41,10.65-14.27,16.87-20.49,4.57-4.57,9.5-8.84,14.73-12.77,3.12-2.34,4.8-5.69,4.8-9.59s-1.68-7.25-4.8-9.59c-5.23-3.93-10.15-8.19-14.73-12.77-6.21-6.21-11.87-13.08-16.87-20.49-2.47-3.66-4.78-7.5-6.93-11.49-1.66-3.08-1.91-6.37-.74-9.67,1.16-3.3,3.42-5.7,6.65-7.06l11.03-4.65c5.66-2.38,12.13-.16,15.12,5.2,1.43,2.56,2.99,5.09,4.66,7.57,3.64,5.4,7.84,10.47,12.51,15.15,4.67,4.67,9.75,8.87,15.15,12.51,4.23,2.85,8.58,5.36,13.02,7.5,4.68,2.25,10.01,1.34,13.68-2.33s4.58-9,2.33-13.67c-2.13-4.44-4.64-8.79-7.49-13.02-3.64-5.4-7.84-10.47-12.51-15.15-4.67-4.67-9.75-8.87-15.15-12.51-2.48-1.67-5.01-3.23-7.57-4.66-5.36-3-7.58-9.47-5.2-15.12l4.65-11.03c1.36-3.23,3.76-5.49,7.06-6.65,3.3-1.17,6.58-.91,9.67.74h0ZM0,153.06c0,13.98,11.34,25.32,25.32,25.32s25.32-11.34,25.32-25.32-11.33-25.32-25.32-25.32S0,139.08,0,153.06h0Zm153.06,153.06c13.98,0,25.32-11.34,25.32-25.32s-11.34-25.32-25.32-25.32-25.32,11.34-25.32,25.32,11.34,25.32,25.32,25.32h0Zm153.06-153.06c0-13.98-11.34-25.32-25.32-25.32s-25.32,11.34-25.32,25.32,11.33,25.32,25.32,25.32,25.32-11.34,25.32-25.32h0ZM153.06,0c-13.98,0-25.32,11.34-25.32,25.32s11.34,25.32,25.32,25.32,25.32-11.34,25.32-25.32S167.05,0,153.06,0Z"/><path class="cls-1" d="m98.72,31.86c3.99,2.14,7.83,4.46,11.49,6.93,7.41,5,14.27,10.65,20.49,16.87,4.57,4.57,8.84,9.5,12.77,14.73,2.34,3.12,5.69,4.8,9.59,4.8s7.25-1.68,9.59-4.8c3.93-5.23,8.2-10.16,12.77-14.73,6.22-6.21,13.08-11.87,20.49-16.87,3.66-2.47,7.5-4.78,11.49-6.93,3.08-1.66,6.37-1.91,9.67-.74s5.7,3.43,7.06,6.65l4.65,11.03c2.38,5.66.16,12.13-5.2,15.12-2.56,1.43-5.09,2.99-7.57,4.66-5.4,3.64-10.47,7.83-15.15,12.51-4.67,4.67-8.87,9.75-12.51,15.15-2.85,4.23-5.36,8.58-7.49,13.02-2.25,4.67-1.34,10.01,2.33,13.67,3.67,3.67,9,4.58,13.67,2.33,4.44-2.14,8.79-4.64,13.02-7.5,5.4-3.64,10.47-7.83,15.15-12.51,4.67-4.67,8.87-9.75,12.51-15.15,1.67-2.48,3.23-5.01,4.66-7.57,3-5.36,9.47-7.58,15.13-5.2l11.03,4.65c3.23,1.36,5.49,3.76,6.65,7.06,1.17,3.3.92,6.58-.74,9.67-2.15,3.99-4.46,7.83-6.93,11.49-5,7.41-10.65,14.27-16.87,20.49-4.57,4.57-9.5,8.84-14.73,12.77-3.12,2.34-4.79,5.69-4.79,9.59s1.68,7.25,4.79,9.59c5.23,3.93,10.16,8.19,14.73,12.77,6.22,6.22,11.87,13.08,16.87,20.49,2.47,3.66,4.78,7.5,6.93,11.49,1.66,3.08,1.91,6.37.74,9.67s-3.42,5.7-6.65,7.06l-11.03,4.65c-5.66,2.38-12.13.16-15.13-5.2-1.43-2.56-2.99-5.09-4.66-7.57-3.64-5.4-7.83-10.47-12.51-15.15s-9.75-8.87-15.15-12.51c-4.23-2.85-8.58-5.36-13.02-7.5-4.68-2.25-10.01-1.34-13.67,2.33-3.67,3.67-4.58,9-2.33,13.67,2.13,4.44,4.64,8.8,7.49,13.02,3.64,5.4,7.84,10.47,12.51,15.15,4.67,4.67,9.75,8.87,15.15,12.51,2.48,1.67,5.01,3.23,7.57,4.66,5.36,3,7.58,9.47,5.2,15.12l-4.65,11.03c-1.36,3.23-3.75,5.48-7.06,6.65-3.3,1.17-6.58.91-9.67-.74-4-2.15-7.83-4.46-11.49-6.93-7.41-5-14.27-10.65-20.49-16.87-4.57-4.57-8.84-9.5-12.77-14.73-2.34-3.12-5.7-4.8-9.59-4.8s-7.25,1.68-9.59,4.8c-3.93,5.23-8.19,10.16-12.77,14.73-6.21,6.21-13.08,11.87-20.49,16.87-3.66,2.47-7.5,4.78-11.49,6.93-3.08,1.66-6.37,1.91-9.67.74-3.3-1.17-5.7-3.43-7.06-6.65l-4.65-11.03c-2.38-5.66-.16-12.13,5.2-15.12,2.56-1.43,5.09-2.99,7.57-4.66,5.4-3.64,10.48-7.83,15.15-12.51,4.67-4.67,8.87-9.75,12.51-15.15,2.85-4.23,5.36-8.58,7.49-13.02,2.25-4.67,1.34-10.01-2.33-13.67-3.67-3.67-9-4.58-13.68-2.33-4.44,2.13-8.79,4.64-13.02,7.5-5.4,3.64-10.48,7.83-15.15,12.51-4.67,4.67-8.87,9.75-12.51,15.15-1.67,2.48-3.23,5.01-4.66,7.57-3,5.36-9.47,7.58-15.12,5.2l-11.03-4.65c-3.22-1.36-5.48-3.76-6.65-7.06s-.92-6.58.74-9.67c2.14-3.99,4.46-7.83,6.93-11.49,5-7.41,10.65-14.27,16.87-20.49,4.57-4.57,9.5-8.84,14.73-12.77,3.12-2.34,4.8-5.69,4.8-9.59s-1.68-7.25-4.8-9.59c-5.23-3.93-10.15-8.19-14.73-12.77-6.21-6.21-11.87-13.08-16.87-20.49-2.47-3.66-4.78-7.5-6.93-11.49-1.66-3.08-1.91-6.37-.74-9.67,1.16-3.3,3.42-5.7,6.65-7.06l11.03-4.65c5.66-2.38,12.13-.16,15.12,5.2,1.43,2.56,2.99,5.09,4.66,7.57,3.64,5.4,7.84,10.47,12.51,15.15,4.67,4.67,9.75,8.87,15.15,12.51,4.23,2.85,8.58,5.36,13.02,7.5,4.68,2.25,10.01,1.34,13.68-2.33s4.58-9,2.33-13.67c-2.13-4.44-4.64-8.79-7.49-13.02-3.64-5.4-7.84-10.47-12.51-15.15-4.67-4.67-9.75-8.87-15.15-12.51-2.48-1.67-5.01-3.23-7.57-4.66-5.36-3-7.58-9.47-5.2-15.12l4.65-11.03c1.36-3.23,3.76-5.49,7.06-6.65,3.3-1.17,6.58-.91,9.67.74h0ZM0,153.06c0,13.98,11.34,25.32,25.32,25.32s25.32-11.34,25.32-25.32-11.33-25.32-25.32-25.32S0,139.08,0,153.06h0Zm153.06,153.06c13.98,0,25.32-11.34,25.32-25.32s-11.34-25.32-25.32-25.32-25.32,11.34-25.32,25.32,11.34,25.32,25.32,25.32h0Zm153.06-153.06c0-13.98-11.34-25.32-25.32-25.32s-25.32,11.34-25.32,25.32,11.33,25.32,25.32,25.32,25.32-11.34,25.32-25.32h0ZM153.06,0c-13.98,0-25.32,11.34-25.32,25.32s11.34,25.32,25.32,25.32,25.32-11.34,25.32-25.32S167.05,0,153.06,0Z"/></g></svg>